<svg width="45" height="48" viewBox="0 0 45 48" fill="none" xmlns="http://www.w3.org/2000/svg">
<path d="M15.592 12.696C13.16 12.696 11.0587 13.1547 9.288 14.072C7.496 14.968 6.13067 16.2587 5.192 17.944C4.232 19.6293 3.752 21.6133 3.752 23.896C3.752 26.1787 4.232 28.1627 5.192 29.848C6.13067 31.512 7.496 32.792 9.288 33.688C11.0587 34.5627 13.16 35 15.592 35H22.536V12.696H15.592ZM15.592 32.6C12.712 32.6 10.5147 31.8427 9 30.328C7.48533 28.792 6.728 26.648 6.728 23.896C6.728 21.1227 7.496 18.9573 9.032 17.4C10.5467 15.8427 12.7333 15.064 15.592 15.064H19.624V32.6H15.592Z" fill="#BD1F36"/>
<path d="M39.56 35L30.376 24.824V35H27.464V12.696H30.376V23.032L39.592 12.696H43.272L33.16 23.864L43.368 35H39.56Z" fill="#EAE8FF"/>
</svg>
