<svg width="138" height="62" viewBox="0 0 138 62" fill="none" xmlns="http://www.w3.org/2000/svg">
<path d="M22.656 19.544C22.656 21.2613 22.384 22.824 21.84 24.232C21.296 25.64 20.528 26.8453 19.536 27.848C18.544 28.8507 17.3547 29.6293 15.968 30.184C14.5813 30.728 13.0453 31 11.36 31H2.784V8.072H11.36C13.0453 8.072 14.5813 8.34933 15.968 8.904C17.3547 9.448 18.544 10.2267 19.536 11.24C20.528 12.2427 21.296 13.448 21.84 14.856C22.384 16.264 22.656 17.8267 22.656 19.544ZM19.472 19.544C19.472 18.136 19.28 16.8773 18.896 15.768C18.512 14.6587 17.968 13.72 17.264 12.952C16.56 12.184 15.7067 11.5973 14.704 11.192C13.7013 10.7867 12.5867 10.584 11.36 10.584H5.904V28.488H11.36C12.5867 28.488 13.7013 28.2853 14.704 27.88C15.7067 27.4747 16.56 26.8933 17.264 26.136C17.968 25.368 18.512 24.4293 18.896 23.32C19.28 22.2107 19.472 20.952 19.472 19.544ZM41.0058 8.072V10.6H29.9978V18.216H38.9098V20.648H29.9978V28.472H41.0058V31H26.8778V8.072H41.0058ZM57.2155 11.656C57.1195 11.816 57.0182 11.9387 56.9115 12.024C56.8048 12.0987 56.6662 12.136 56.4955 12.136C56.3142 12.136 56.1008 12.0453 55.8555 11.864C55.6208 11.6827 55.3168 11.4853 54.9435 11.272C54.5808 11.048 54.1382 10.8453 53.6155 10.664C53.1035 10.4827 52.4795 10.392 51.7435 10.392C51.0502 10.392 50.4368 10.488 49.9035 10.68C49.3702 10.8613 48.9222 11.112 48.5595 11.432C48.2075 11.752 47.9408 12.1307 47.7595 12.568C47.5782 12.9947 47.4875 13.4587 47.4875 13.96C47.4875 14.6 47.6422 15.1333 47.9515 15.56C48.2715 15.976 48.6875 16.3333 49.1995 16.632C49.7222 16.9307 50.3088 17.192 50.9595 17.416C51.6208 17.6293 52.2928 17.8533 52.9755 18.088C53.6688 18.3227 54.3408 18.5893 54.9915 18.888C55.6528 19.176 56.2395 19.544 56.7515 19.992C57.2742 20.44 57.6902 20.9893 57.9995 21.64C58.3195 22.2907 58.4795 23.0907 58.4795 24.04C58.4795 25.0427 58.3088 25.9867 57.9675 26.872C57.6262 27.7467 57.1248 28.5093 56.4635 29.16C55.8128 29.8107 55.0075 30.3227 54.0475 30.696C53.0982 31.0693 52.0155 31.256 50.7995 31.256C49.3168 31.256 47.9622 30.9893 46.7355 30.456C45.5195 29.912 44.4795 29.1813 43.6155 28.264L44.5115 26.792C44.5968 26.6747 44.6982 26.5787 44.8155 26.504C44.9435 26.4187 45.0822 26.376 45.2315 26.376C45.4555 26.376 45.7115 26.4987 45.9995 26.744C46.2875 26.9787 46.6448 27.24 47.0715 27.528C47.5088 27.816 48.0315 28.0827 48.6395 28.328C49.2582 28.5627 50.0102 28.68 50.8955 28.68C51.6315 28.68 52.2875 28.5787 52.8635 28.376C53.4395 28.1733 53.9248 27.8907 54.3195 27.528C54.7248 27.1547 55.0342 26.712 55.2475 26.2C55.4608 25.688 55.5675 25.1173 55.5675 24.488C55.5675 23.7947 55.4075 23.2293 55.0875 22.792C54.7782 22.344 54.3675 21.9707 53.8555 21.672C53.3435 21.3733 52.7568 21.1227 52.0955 20.92C51.4448 20.7067 50.7728 20.4933 50.0795 20.28C49.3968 20.056 48.7248 19.8 48.0635 19.512C47.4128 19.224 46.8315 18.8507 46.3195 18.392C45.8075 17.9333 45.3915 17.3627 45.0715 16.68C44.7622 15.9867 44.6075 15.1333 44.6075 14.12C44.6075 13.3093 44.7622 12.5253 45.0715 11.768C45.3915 11.0107 45.8502 10.3387 46.4475 9.752C47.0448 9.16533 47.7808 8.696 48.6555 8.344C49.5408 7.992 50.5542 7.816 51.6955 7.816C52.9755 7.816 54.1435 8.01867 55.1995 8.424C56.2555 8.82933 57.1782 9.416 57.9675 10.184L57.2155 11.656ZM65.8483 18.12H67.0163C67.4216 18.12 67.7416 18.072 67.9763 17.976C68.2216 17.8693 68.4509 17.6933 68.6643 17.448L76.2963 8.808C76.5309 8.54133 76.7549 8.35467 76.9683 8.248C77.1923 8.13067 77.4749 8.072 77.8163 8.072H80.4563L71.7203 17.944C71.4963 18.1893 71.2829 18.3973 71.0803 18.568C70.8883 18.7387 70.6803 18.8773 70.4563 18.984C70.7549 19.08 71.0163 19.224 71.2403 19.416C71.4643 19.608 71.6989 19.848 71.9443 20.136L81.0643 31H78.3763C78.1736 31 78.0029 30.984 77.8643 30.952C77.7256 30.92 77.6029 30.8773 77.4963 30.824C77.4003 30.7707 77.3096 30.7013 77.2243 30.616C77.1389 30.5307 77.0536 30.44 76.9683 30.344L69.0483 21.24C68.9309 21.112 68.8189 21.0053 68.7123 20.92C68.6163 20.824 68.4989 20.744 68.3603 20.68C68.2323 20.616 68.0776 20.5733 67.8963 20.552C67.7256 20.52 67.5123 20.504 67.2563 20.504H65.8483V31H62.7603V8.072H65.8483V18.12ZM85.8215 8.072C86.0988 8.072 86.3015 8.10933 86.4295 8.184C86.5682 8.248 86.7228 8.38667 86.8935 8.6L100.174 25.88C100.142 25.6027 100.12 25.336 100.11 25.08C100.099 24.8133 100.094 24.5573 100.094 24.312V8.072H102.814V31H101.246C101 31 100.792 30.9573 100.622 30.872C100.462 30.7867 100.302 30.6427 100.142 30.44L86.8775 13.176C86.8988 13.4427 86.9148 13.704 86.9255 13.96C86.9362 14.216 86.9415 14.4507 86.9415 14.664V31H84.2215V8.072H85.8215ZM112.089 31H108.985V8.072H112.089V31ZM121.63 18.12H122.798C123.203 18.12 123.523 18.072 123.758 17.976C124.003 17.8693 124.232 17.6933 124.446 17.448L132.078 8.808C132.312 8.54133 132.536 8.35467 132.75 8.248C132.974 8.13067 133.256 8.072 133.598 8.072H136.238L127.502 17.944C127.278 18.1893 127.064 18.3973 126.862 18.568C126.67 18.7387 126.462 18.8773 126.238 18.984C126.536 19.08 126.798 19.224 127.022 19.416C127.246 19.608 127.48 19.848 127.726 20.136L136.846 31H134.158C133.955 31 133.784 30.984 133.646 30.952C133.507 30.92 133.384 30.8773 133.278 30.824C133.182 30.7707 133.091 30.7013 133.006 30.616C132.92 30.5307 132.835 30.44 132.75 30.344L124.83 21.24C124.712 21.112 124.6 21.0053 124.494 20.92C124.398 20.824 124.28 20.744 124.142 20.68C124.014 20.616 123.859 20.5733 123.678 20.552C123.507 20.52 123.294 20.504 123.038 20.504H121.63V31H118.542V8.072H121.63V18.12Z" fill="#BD1F36"/>
<path d="M22.656 42.456C22.656 40.7387 22.384 39.176 21.84 37.768C21.296 36.36 20.528 35.1547 19.536 34.152C18.544 33.1493 17.3547 32.3707 15.968 31.816C14.5813 31.272 13.0453 31 11.36 31H2.784V53.928H11.36C13.0453 53.928 14.5813 53.6507 15.968 53.096C17.3547 52.552 18.544 51.7733 19.536 50.76C20.528 49.7573 21.296 48.552 21.84 47.144C22.384 45.736 22.656 44.1733 22.656 42.456ZM19.472 42.456C19.472 43.864 19.28 45.1227 18.896 46.232C18.512 47.3413 17.968 48.28 17.264 49.048C16.56 49.816 15.7067 50.4027 14.704 50.808C13.7013 51.2133 12.5867 51.416 11.36 51.416H5.904V33.512H11.36C12.5867 33.512 13.7013 33.7147 14.704 34.12C15.7067 34.5253 16.56 35.1067 17.264 35.864C17.968 36.632 18.512 37.5707 18.896 38.68C19.28 39.7893 19.472 41.048 19.472 42.456ZM41.0058 53.928V51.4H29.9978V43.784H38.9098V41.352H29.9978V33.528H41.0058V31H26.8778V53.928H41.0058ZM57.2155 50.344C57.1195 50.184 57.0182 50.0613 56.9115 49.976C56.8048 49.9013 56.6662 49.864 56.4955 49.864C56.3142 49.864 56.1008 49.9547 55.8555 50.136C55.6208 50.3173 55.3168 50.5147 54.9435 50.728C54.5808 50.952 54.1382 51.1547 53.6155 51.336C53.1035 51.5173 52.4795 51.608 51.7435 51.608C51.0502 51.608 50.4368 51.512 49.9035 51.32C49.3702 51.1387 48.9222 50.888 48.5595 50.568C48.2075 50.248 47.9408 49.8693 47.7595 49.432C47.5782 49.0053 47.4875 48.5413 47.4875 48.04C47.4875 47.4 47.6422 46.8667 47.9515 46.44C48.2715 46.024 48.6875 45.6667 49.1995 45.368C49.7222 45.0693 50.3088 44.808 50.9595 44.584C51.6208 44.3707 52.2928 44.1467 52.9755 43.912C53.6688 43.6773 54.3408 43.4107 54.9915 43.112C55.6528 42.824 56.2395 42.456 56.7515 42.008C57.2742 41.56 57.6902 41.0107 57.9995 40.36C58.3195 39.7093 58.4795 38.9093 58.4795 37.96C58.4795 36.9573 58.3088 36.0133 57.9675 35.128C57.6262 34.2533 57.1248 33.4907 56.4635 32.84C55.8128 32.1893 55.0075 31.6773 54.0475 31.304C53.0982 30.9307 52.0155 30.744 50.7995 30.744C49.3168 30.744 47.9622 31.0107 46.7355 31.544C45.5195 32.088 44.4795 32.8187 43.6155 33.736L44.5115 35.208C44.5968 35.3253 44.6982 35.4213 44.8155 35.496C44.9435 35.5813 45.0822 35.624 45.2315 35.624C45.4555 35.624 45.7115 35.5013 45.9995 35.256C46.2875 35.0213 46.6448 34.76 47.0715 34.472C47.5088 34.184 48.0315 33.9173 48.6395 33.672C49.2582 33.4373 50.0102 33.32 50.8955 33.32C51.6315 33.32 52.2875 33.4213 52.8635 33.624C53.4395 33.8267 53.9248 34.1093 54.3195 34.472C54.7248 34.8453 55.0342 35.288 55.2475 35.8C55.4608 36.312 55.5675 36.8827 55.5675 37.512C55.5675 38.2053 55.4075 38.7707 55.0875 39.208C54.7782 39.656 54.3675 40.0293 53.8555 40.328C53.3435 40.6267 52.7568 40.8773 52.0955 41.08C51.4448 41.2933 50.7728 41.5067 50.0795 41.72C49.3968 41.944 48.7248 42.2 48.0635 42.488C47.4128 42.776 46.8315 43.1493 46.3195 43.608C45.8075 44.0667 45.3915 44.6373 45.0715 45.32C44.7622 46.0133 44.6075 46.8667 44.6075 47.88C44.6075 48.6907 44.7622 49.4747 45.0715 50.232C45.3915 50.9893 45.8502 51.6613 46.4475 52.248C47.0448 52.8347 47.7808 53.304 48.6555 53.656C49.5408 54.008 50.5542 54.184 51.6955 54.184C52.9755 54.184 54.1435 53.9813 55.1995 53.576C56.2555 53.1707 57.1782 52.584 57.9675 51.816L57.2155 50.344ZM65.8483 43.88H67.0163C67.4216 43.88 67.7416 43.928 67.9763 44.024C68.2216 44.1307 68.4509 44.3067 68.6643 44.552L76.2963 53.192C76.5309 53.4587 76.7549 53.6453 76.9683 53.752C77.1923 53.8693 77.4749 53.928 77.8163 53.928H80.4563L71.7203 44.056C71.4963 43.8107 71.2829 43.6027 71.0803 43.432C70.8883 43.2613 70.6803 43.1227 70.4563 43.016C70.7549 42.92 71.0163 42.776 71.2403 42.584C71.4643 42.392 71.6989 42.152 71.9443 41.864L81.0643 31H78.3763C78.1736 31 78.0029 31.016 77.8643 31.048C77.7256 31.08 77.6029 31.1227 77.4963 31.176C77.4003 31.2293 77.3096 31.2987 77.2243 31.384C77.1389 31.4693 77.0536 31.56 76.9683 31.656L69.0483 40.76C68.9309 40.888 68.8189 40.9947 68.7123 41.08C68.6163 41.176 68.4989 41.256 68.3603 41.32C68.2323 41.384 68.0776 41.4267 67.8963 41.448C67.7256 41.48 67.5123 41.496 67.2563 41.496H65.8483V31H62.7603V53.928H65.8483V43.88ZM85.8215 53.928C86.0988 53.928 86.3015 53.8907 86.4295 53.816C86.5682 53.752 86.7228 53.6133 86.8935 53.4L100.174 36.12C100.142 36.3973 100.12 36.664 100.11 36.92C100.099 37.1867 100.094 37.4427 100.094 37.688V53.928H102.814V31H101.246C101 31 100.792 31.0427 100.622 31.128C100.462 31.2133 100.302 31.3573 100.142 31.56L86.8775 48.824C86.8988 48.5573 86.9148 48.296 86.9255 48.04C86.9362 47.784 86.9415 47.5493 86.9415 47.336V31H84.2215V53.928H85.8215ZM112.089 31H108.985V53.928H112.089V31ZM121.63 43.88H122.798C123.203 43.88 123.523 43.928 123.758 44.024C124.003 44.1307 124.232 44.3067 124.446 44.552L132.078 53.192C132.312 53.4587 132.536 53.6453 132.75 53.752C132.974 53.8693 133.256 53.928 133.598 53.928H136.238L127.502 44.056C127.278 43.8107 127.064 43.6027 126.862 43.432C126.67 43.2613 126.462 43.1227 126.238 43.016C126.536 42.92 126.798 42.776 127.022 42.584C127.246 42.392 127.48 42.152 127.726 41.864L136.846 31H134.158C133.955 31 133.784 31.016 133.646 31.048C133.507 31.08 133.384 31.1227 133.278 31.176C133.182 31.2293 133.091 31.2987 133.006 31.384C132.92 31.4693 132.835 31.56 132.75 31.656L124.83 40.76C124.712 40.888 124.6 40.9947 124.494 41.08C124.398 41.176 124.28 41.256 124.142 41.32C124.014 41.384 123.859 41.4267 123.678 41.448C123.507 41.48 123.294 41.496 123.038 41.496H121.63V31H118.542V53.928H121.63V43.88Z" fill="#EAE8FF"/>
</svg>
