<svg width="138" height="70" viewBox="0 0 138 70" fill="none" xmlns="http://www.w3.org/2000/svg">
<path d="M9.408 12.696C11.84 12.696 13.9413 13.1547 15.712 14.072C17.504 14.968 18.8693 16.2587 19.808 17.944C20.768 19.6293 21.248 21.6133 21.248 23.896C21.248 26.1787 20.768 28.1627 19.808 29.848C18.8693 31.512 17.504 32.792 15.712 33.688C13.9413 34.5627 11.84 35 9.408 35H2.464V12.696H9.408ZM9.408 32.6C12.288 32.6 14.4853 31.8427 16 30.328C17.5147 28.792 18.272 26.648 18.272 23.896C18.272 21.1227 17.504 18.9573 15.968 17.4C14.4533 15.8427 12.2667 15.064 9.408 15.064H5.376V32.6H9.408ZM28.001 15.064V22.52H36.129V24.92H28.001V32.6H37.089V35H25.089V12.664H37.089V15.064H28.001ZM48.5673 35.224C47.0953 35.224 45.7726 34.968 44.5993 34.456C43.4473 33.9227 42.5406 33.1973 41.8793 32.28C41.2179 31.3413 40.8766 30.264 40.8553 29.048H43.9593C44.0659 30.0933 44.4926 30.9787 45.2393 31.704C46.0073 32.408 47.1166 32.76 48.5673 32.76C49.9539 32.76 51.0419 32.4187 51.8313 31.736C52.6419 31.032 53.0473 30.136 53.0473 29.048C53.0473 28.1947 52.8126 27.5013 52.3433 26.968C51.8739 26.4347 51.2873 26.0293 50.5833 25.752C49.8793 25.4747 48.9299 25.176 47.7353 24.856C46.2633 24.472 45.0793 24.088 44.1833 23.704C43.3086 23.32 42.5513 22.7227 41.9113 21.912C41.2926 21.08 40.9833 19.9707 40.9833 18.584C40.9833 17.368 41.2926 16.2907 41.9113 15.352C42.5299 14.4133 43.3939 13.688 44.5033 13.176C45.6339 12.664 46.9246 12.408 48.3753 12.408C50.4659 12.408 52.1726 12.9307 53.4953 13.976C54.8393 15.0213 55.5966 16.408 55.7673 18.136H52.5673C52.4606 17.2827 52.0126 16.536 51.2233 15.896C50.4339 15.2347 49.3886 14.904 48.0873 14.904C46.8713 14.904 45.8793 15.224 45.1113 15.864C44.3433 16.4827 43.9593 17.3573 43.9593 18.488C43.9593 19.2987 44.1833 19.96 44.6313 20.472C45.1006 20.984 45.6659 21.3787 46.3273 21.656C47.0099 21.912 47.9593 22.2107 49.1753 22.552C50.6473 22.9573 51.8313 23.3627 52.7273 23.768C53.6233 24.152 54.3913 24.76 55.0312 25.592C55.6713 26.4027 55.9913 27.512 55.9913 28.92C55.9913 30.008 55.7033 31.032 55.1273 31.992C54.5513 32.952 53.6979 33.7307 52.5673 34.328C51.4366 34.9253 50.1033 35.224 48.5673 35.224ZM72.3725 35L63.1885 24.824V35H60.2765V12.696H63.1885V23.032L72.4045 12.696H76.0845L65.9725 23.864L76.1805 35H72.3725ZM96.9688 35H94.0568L82.3448 17.24V35H79.4328V12.664H82.3448L94.0568 30.392V12.664H96.9688V35ZM104.845 12.696V35H101.933V12.696H104.845ZM121.904 35L112.72 24.824V35H109.808V12.696H112.72V23.032L121.936 12.696H125.616L115.504 23.864L125.712 35H121.904Z" fill="#BD1F36"/>
<path d="M9.408 57.304C11.84 57.304 13.9413 56.8453 15.712 55.928C17.504 55.032 18.8693 53.7413 19.808 52.056C20.768 50.3707 21.248 48.3867 21.248 46.104C21.248 43.8213 20.768 41.8373 19.808 40.152C18.8693 38.488 17.504 37.208 15.712 36.312C13.9413 35.4373 11.84 35 9.408 35H2.464V57.304H9.408ZM9.408 37.4C12.288 37.4 14.4853 38.1573 16 39.672C17.5147 41.208 18.272 43.352 18.272 46.104C18.272 48.8773 17.504 51.0427 15.968 52.6C14.4533 54.1573 12.2667 54.936 9.408 54.936H5.376V37.4H9.408ZM28.001 54.936V47.48H36.129V45.08H28.001V37.4H37.089V35H25.089V57.336H37.089V54.936H28.001ZM48.5673 34.776C47.0953 34.776 45.7726 35.032 44.5993 35.544C43.4473 36.0773 42.5406 36.8027 41.8793 37.72C41.2179 38.6587 40.8766 39.736 40.8553 40.952H43.9593C44.0659 39.9067 44.4926 39.0213 45.2393 38.296C46.0073 37.592 47.1166 37.24 48.5673 37.24C49.9539 37.24 51.0419 37.5813 51.8313 38.264C52.6419 38.968 53.0473 39.864 53.0473 40.952C53.0473 41.8053 52.8126 42.4987 52.3433 43.032C51.8739 43.5653 51.2873 43.9707 50.5833 44.248C49.8793 44.5253 48.9299 44.824 47.7353 45.144C46.2633 45.528 45.0793 45.912 44.1833 46.296C43.3086 46.68 42.5513 47.2773 41.9113 48.088C41.2926 48.92 40.9833 50.0293 40.9833 51.416C40.9833 52.632 41.2926 53.7093 41.9113 54.648C42.5299 55.5867 43.3939 56.312 44.5033 56.824C45.6339 57.336 46.9246 57.592 48.3753 57.592C50.4659 57.592 52.1726 57.0693 53.4953 56.024C54.8393 54.9787 55.5966 53.592 55.7673 51.864H52.5673C52.4606 52.7173 52.0126 53.464 51.2233 54.104C50.4339 54.7653 49.3886 55.096 48.0873 55.096C46.8713 55.096 45.8793 54.776 45.1113 54.136C44.3433 53.5173 43.9593 52.6427 43.9593 51.512C43.9593 50.7013 44.1833 50.04 44.6313 49.528C45.1006 49.016 45.6659 48.6213 46.3273 48.344C47.0099 48.088 47.9593 47.7893 49.1753 47.448C50.6473 47.0427 51.8313 46.6373 52.7273 46.232C53.6233 45.848 54.3913 45.24 55.0312 44.408C55.6713 43.5973 55.9913 42.488 55.9913 41.08C55.9913 39.992 55.7033 38.968 55.1273 38.008C54.5513 37.048 53.6979 36.2693 52.5673 35.672C51.4366 35.0747 50.1033 34.776 48.5673 34.776ZM72.3725 35L63.1885 45.176V35H60.2765V57.304H63.1885V46.968L72.4045 57.304H76.0845L65.9725 46.136L76.1805 35H72.3725ZM96.9688 35H94.0568L82.3448 52.76V35H79.4328V57.336H82.3448L94.0568 39.608V57.336H96.9688V35ZM104.845 57.304V35H101.933V57.304H104.845ZM121.904 35L112.72 45.176V35H109.808V57.304H112.72V46.968L121.936 57.304H125.616L115.504 46.136L125.712 35H121.904Z" fill="#EAE8FF"/>
</svg>
